<svg width="300" height="300" viewBox="0 0 300 300" fill="none" xmlns="http://www.w3.org/2000/svg">
<g clip-path="url(#clip0_406_64)">
<path fill-rule="evenodd" clip-rule="evenodd" d="M88.7785 192.28C90.204 192.28 91.3594 194.101 91.3594 196.348C91.3594 198.594 90.204 200.416 88.7785 200.416C87.3526 200.416 86.1971 198.594 86.1971 196.348C86.1971 194.101 87.3526 192.28 88.7785 192.28ZM89.8444 206.083C91.1767 206.083 92.2571 207.791 92.2571 209.898C92.2571 212.005 91.1767 213.714 89.8444 213.714C88.5121 213.714 87.4321 212.005 87.4321 209.898C87.4321 207.791 88.5121 206.083 89.8444 206.083ZM88.9199 218.988C89.958 218.988 90.6062 220.345 90.3685 222.018C90.1299 223.691 89.0958 225.047 88.058 225.047C87.0194 225.047 86.3712 223.691 86.6094 222.018C86.8471 220.345 87.8817 218.988 88.9199 218.988ZM85.2894 231.051C86.3549 231.051 86.748 232.759 86.168 234.866C85.5885 236.973 84.2549 238.682 83.1894 238.682C82.1244 238.682 81.7312 236.973 82.3108 234.866C82.8908 232.759 84.2244 231.051 85.2894 231.051ZM84.7571 225.047C85.3921 225.047 85.7467 225.801 85.5485 226.731C85.3499 227.661 84.6744 228.414 84.039 228.414C83.4035 228.414 83.049 227.661 83.2476 226.731C83.4462 225.801 84.1217 225.047 84.7571 225.047ZM85.5794 213.714C86.2312 213.714 86.7603 214.467 86.7603 215.397C86.7603 216.327 86.2312 217.08 85.5794 217.08C84.9267 217.08 84.398 216.327 84.398 215.397C84.398 214.467 84.9267 213.714 85.5794 213.714ZM123.68 196.348C125.106 196.348 126.261 198.025 126.261 200.094C126.261 202.163 125.106 203.839 123.68 203.839C122.255 203.839 121.099 202.163 121.099 200.094C121.099 198.025 122.255 196.348 123.68 196.348ZM124.915 209.898C126.34 209.898 127.496 212.435 127.496 215.566C127.496 218.696 126.34 221.233 124.915 221.233C123.489 221.233 122.334 218.696 122.334 215.566C122.334 212.435 123.489 209.898 124.915 209.898ZM125.429 228.414C126.855 228.414 127.619 230.123 127.136 232.229C126.653 234.337 125.106 236.045 123.68 236.045C122.255 236.045 121.491 234.337 121.974 232.229C122.457 230.123 124.004 228.414 125.429 228.414M122.11 222.018C122.978 222.018 123.681 222.985 123.681 224.178C123.681 225.372 122.978 226.339 122.11 226.339C121.242 226.339 120.539 225.372 120.539 224.178C120.539 222.985 121.242 222.018 122.11 222.018ZM120.792 205.243C121.519 205.243 122.11 205.996 122.11 206.926C122.11 207.855 121.519 208.609 120.792 208.609C120.063 208.609 119.473 207.855 119.473 206.926C119.473 205.996 120.063 205.243 120.792 205.243ZM120.437 241.488C121.65 241.488 122.093 243.008 121.427 244.883C120.76 246.758 119.237 248.278 118.023 248.278C116.81 248.278 116.367 246.758 117.033 244.883C117.7 243.008 119.223 241.488 120.437 241.488ZM119.729 234.866C120.395 234.866 120.795 235.633 120.624 236.578C120.453 237.524 119.774 238.29 119.108 238.29C118.443 238.29 118.042 237.524 118.213 236.578C118.385 235.633 119.063 234.866 119.729 234.866M115.025 250.915C115.893 250.915 116.449 251.818 116.268 252.935C116.086 254.05 115.236 254.954 114.368 254.954C113.501 254.954 112.944 254.05 113.126 252.935C113.307 251.818 114.158 250.915 115.025 250.915ZM178.703 188.016C180.208 188.016 181.887 190.554 182.453 193.683C183.019 196.813 182.258 199.351 180.752 199.351C179.247 199.351 177.567 196.813 177.002 193.683C176.435 190.554 177.198 188.016 178.703 188.016ZM178.743 203.839C179.808 203.839 180.672 205.661 180.672 207.907C180.672 210.154 179.808 211.975 178.743 211.975C177.678 211.975 176.814 210.154 176.814 207.907C176.814 205.661 177.678 203.839 178.743 203.839M183.159 200.642C183.995 200.642 184.673 201.773 184.673 203.167C184.673 204.561 183.995 205.691 183.159 205.691C182.322 205.691 181.643 204.561 181.643 203.167C181.643 201.773 182.322 200.642 183.159 200.642ZM180.09 216.24C181.156 216.24 181.718 217.684 181.346 219.466C180.973 221.248 179.808 222.693 178.743 222.693C177.678 222.693 177.115 221.248 177.488 219.466C177.86 217.684 179.025 216.24 180.09 216.24ZM182.309 211.975C182.778 211.975 183.159 212.616 183.159 213.406C183.159 214.197 182.778 214.838 182.309 214.838C181.841 214.838 181.46 214.197 181.46 213.406C181.46 212.616 181.841 211.975 182.309 211.975ZM175.997 228.414C177.062 228.414 177.543 230.123 177.068 232.229C176.595 234.337 175.347 236.045 174.282 236.045C173.217 236.045 172.737 234.337 173.21 232.229C173.685 230.123 174.933 228.414 175.997 228.414ZM173.201 243.398C174.271 243.398 175.139 244.653 175.139 246.203C175.139 247.752 174.271 249.008 173.201 249.008C172.131 249.008 171.263 247.752 171.263 246.203C171.263 244.653 172.131 243.398 173.201 243.398ZM172.232 237.786C172.767 237.786 173.201 238.427 173.201 239.218C173.201 240.008 172.767 240.649 172.232 240.649C171.697 240.649 171.263 240.008 171.263 239.218C171.263 238.427 171.697 237.786 172.232 237.786ZM177.921 252.935C179.253 252.935 180.625 254.706 180.986 256.89C181.347 259.075 180.558 260.846 179.227 260.846C177.894 260.846 176.522 259.075 176.161 256.89C175.801 254.706 176.588 252.935 177.921 252.935ZM209.328 173.486C210.71 173.486 212.446 175.308 213.208 177.554C213.968 179.801 213.466 181.622 212.085 181.622C210.705 181.622 208.968 179.801 208.207 177.554C207.446 175.308 207.948 173.486 209.328 173.486ZM216.553 183.979C217.869 183.979 219.343 185.473 219.844 187.318C220.344 189.161 219.683 190.656 218.366 190.656C217.05 190.656 215.575 189.161 215.075 187.318C214.574 185.473 215.236 183.979 216.553 183.979M216.856 179.378C217.368 179.378 217.869 179.88 217.976 180.5C218.083 181.119 217.756 181.622 217.244 181.622C216.733 181.622 216.231 181.119 216.124 180.5C216.017 179.88 216.345 179.378 216.856 179.378ZM221.368 192.831C222.529 192.831 223.703 194.325 223.987 196.168C224.272 198.013 223.561 199.507 222.399 199.507C221.237 199.507 220.064 198.013 219.779 196.168C219.494 194.325 220.205 192.831 221.368 192.831ZM222.356 188.705C222.841 188.705 223.325 189.29 223.437 190.01C223.549 190.73 223.247 191.315 222.761 191.315C222.276 191.315 221.793 190.73 221.681 190.01C221.569 189.29 221.871 188.705 222.356 188.705M223.126 202.677C223.938 202.677 224.595 203.657 224.595 204.865C224.595 206.073 223.938 207.053 223.126 207.053C222.315 207.053 221.657 206.073 221.657 204.865C221.657 203.657 222.315 202.677 223.126 202.677ZM224.675 209.634C225.486 209.634 226.454 210.94 226.838 212.551C227.222 214.163 226.874 215.469 226.063 215.469C225.253 215.469 224.284 214.163 223.9 212.551C223.517 210.94 223.863 209.634 224.675 209.634M226.571 206.183C226.998 206.183 227.343 206.743 227.343 207.433C227.343 208.121 226.998 208.681 226.571 208.681C226.145 208.681 225.8 208.121 225.8 207.433C225.8 206.743 226.145 206.183 226.571 206.183ZM230.313 213.731C231.801 213.731 233.566 215.564 234.256 217.826C234.947 220.088 234.301 221.922 232.813 221.922C231.326 221.922 229.561 220.088 228.87 217.826C228.18 215.564 228.826 213.731 230.313 213.731ZM237.898 221.49C239.095 221.728 240.065 222.7 240.065 223.662C240.065 224.622 239.095 225.207 237.898 224.968C236.701 224.73 235.73 223.758 235.73 222.797C235.73 221.836 236.701 221.251 237.898 221.49ZM86.1971 175.897C88.4903 175.897 90.3494 178.609 90.3494 181.957C90.3494 185.303 88.4903 188.016 86.1971 188.016C83.9044 188.016 82.0453 185.303 82.0453 181.957C82.0453 178.609 83.9044 175.897 86.1971 175.897M173.21 69.2912C179.147 79.5735 158.065 83.4694 146.503 79.6153L160.602 74.1657C160.827 75.9671 161.465 77.6407 162.421 79.0866C163.626 77.2621 164.328 75.0757 164.328 72.7253V72.7248L173.21 69.2912ZM110.729 69.2912L119.612 72.7248V72.7253C119.612 75.0757 120.314 77.2621 121.519 79.0866C122.474 77.6407 123.114 75.9671 123.338 74.1657L137.437 79.6153C125.875 83.4694 104.793 79.5735 110.729 69.2912M158.694 229.434C154.747 224.747 153.085 218.548 154.161 212.515C156.428 199.79 150.256 187.686 138.102 183.286C139.365 177.675 141.614 170.715 146.513 165.293C148.866 167.537 152.567 171.24 154.921 173.485C164.221 182.353 167.791 195.672 164.17 208.003C162.316 214.318 162.316 221.033 164.17 227.348C164.544 228.622 163.998 229.986 162.848 230.649C161.699 231.313 160.245 231.104 159.329 230.143C159.11 229.913 158.898 229.676 158.694 229.434M186.682 134.806C185.573 132.578 184.68 130.226 184.024 127.778C183.1 124.332 182.682 120.815 182.747 117.326C185.205 119.074 187.089 121.656 187.929 124.788C188.868 128.294 188.328 131.858 186.682 134.806M259.177 184.705L260.524 195.478C261.252 201.298 258.554 207.015 253.601 210.157C248.647 213.297 241.116 214.672 237.372 210.157C226.986 197.63 234.029 161.845 192.164 142.954C196.977 138.373 199.815 131.955 199.815 125.109C199.815 115.848 194.62 107.369 186.369 103.163L185.897 102.921C187.073 100.23 188.571 97.6589 190.38 95.2694C208.358 71.5212 205.276 37.9871 183.273 17.9121C176.325 11.5735 168.213 7.23804 159.672 4.9035C171.345 9.46759 180.02 19.8817 182.143 32.5962L183.079 38.2057C174.68 15.5321 151.328 2.04984 127.493 6.11302L123.459 6.80075C117.034 9.30847 110.963 13.0108 105.59 17.9121C83.5871 37.9871 80.5058 71.5212 98.483 95.2694C99.5035 96.6171 100.389 98.0435 101.138 99.5271C95.5249 100.106 90.4753 103.338 87.6153 108.29C84.4371 113.795 84.4521 120.582 87.6558 126.073L90.7971 131.459C96.4121 126.278 100.39 119.57 102.244 112.158L103.603 106.719C104.407 110.823 104.283 115.109 103.173 119.254C100.951 127.544 95.0267 134.344 87.119 137.68C74.8744 142.846 65.7008 153.375 62.2608 166.213C58.8212 179.049 61.5008 192.756 69.5226 203.351C76.1953 212.166 76.9399 224.12 71.4121 233.694C65.8844 243.268 55.1599 248.601 44.1899 247.229C41.8271 246.934 39.608 248.426 38.9917 250.727C38.3758 253.027 39.5503 255.429 41.7444 256.355C56.5117 262.585 73.6235 258 83.2967 245.221C92.4494 233.13 96.518 217.944 94.6376 202.896C93.833 196.46 94.729 190.122 97.0271 184.395C94.4012 171.649 98.9717 158.283 109.257 149.832L117.804 142.808C111.692 148.401 107.453 155.743 105.666 163.834L103.453 173.851C101.937 184.484 103.572 195.461 108.359 205.352C117.48 224.203 111.401 246.89 94.0771 258.654C82.5726 266.466 78.5353 281.533 84.5926 294.05C85.3899 295.698 87.0417 296.761 88.8717 296.806C90.7017 296.85 92.4035 295.868 93.2794 294.261C94.1558 292.654 94.0608 290.692 93.0321 289.177C91.143 286.396 90.5576 282.929 91.428 279.682C92.298 276.433 94.538 273.725 97.5649 272.26C118.977 261.898 131.898 239.519 130.165 215.795C128.685 195.525 133.243 175.338 143.164 157.745L146.288 153.284C149.358 148.902 150.786 143.576 150.318 138.245L151.45 142.512C153.223 149.193 152.093 156.219 148.508 161.94L154.921 166.975C173.895 181.873 180.763 207.505 171.779 229.893C166.696 242.562 169.66 257.042 179.313 266.695C188.965 276.347 203.445 279.311 216.113 274.228C218.195 273.393 219.325 271.134 218.743 268.968C218.164 266.801 216.056 265.41 213.836 265.728C203.778 267.166 193.858 262.342 188.778 253.543C183.699 244.745 184.481 233.741 190.755 225.75C205.076 207.511 198.385 184.356 187.011 167.286L178.606 155.978L184.891 159.12C190.046 161.698 193.686 166.379 195.023 171.791C198.024 173.644 200.937 175.64 203.754 177.772C212.576 184.451 218.327 194.411 219.699 205.39C220.982 215.653 228.355 224.115 238.344 226.792C248.334 229.468 258.949 225.826 265.192 217.58C272.954 207.326 272.954 193.163 265.192 182.91C264.348 181.795 262.901 181.322 261.562 181.721C260.222 182.122 259.006 183.343 259.177 184.705" fill="#A90000"/>
</g>
<defs>
<clipPath id="clip0_406_64">
<rect width="300" height="300" fill="white"/>
</clipPath>
</defs>
</svg>
