<svg width="512" height="308" viewBox="0 0 512 308" fill="none" xmlns="http://www.w3.org/2000/svg">
<path d="M128 102.667C145.062 34.227 187.738 0 256 0C358.4 0 371.2 77 422.4 89.833C456.538 98.393 486.4 85.56 512 51.333C494.938 119.773 452.262 154 384 154C281.6 154 268.8 77 217.6 64.167C183.462 55.607 153.6 68.44 128 102.667ZM0 256.667C17.062 188.227 59.738 154 128 154C230.4 154 243.2 231 294.4 243.833C328.538 252.393 358.4 239.56 384 205.333C366.938 273.773 324.262 308 256 308C153.6 308 140.8 231 89.6 218.167C55.462 209.607 25.6 222.44 0 256.667Z" fill="black"/>
</svg>
